# xmcd
# Copyright (C) 1995-1998 Ti Kan
#
# Track frame offsets:
#       182
#       20147
#       41432
#       63632
#       83892
#       111447
#       139415
#       161552
#       187200
#
# Disc length: 2824 seconds
#
# Revision: 0
# Processed by: cddbd v1.5.2PL0 Copyright (c) Steve Scherf et al.
# Submitted via: CD-Transfer v1.0
#
DISCID=860b0609
DTITLE=Depeche Mode - 
DYEAR=1990
DGENRE=
TTITLE0=World In My Eyes
TTITLE1=Sweetest Perfection
TTITLE2=Personal Jesus
TTITLE3=Halo
TTITLE4=Waiting For The Night
TTITLE5=Enjoy The Silence
TTITLE6=Policy Of Truth
TTITLE7=Blue Dress
TTITLE8=Clean
EXTD=
EXTT0=
EXTT1=
EXTT2=
EXTT3=
EXTT4=
EXTT5=
EXTT6=
EXTT7=
EXTT8=
PLAYORDER=
